<?xml version="1.0" ?><svg id="Layer_1" style="enable-background:new 0 0 512 512;" version="1.1" viewBox="0 0 512 512" xml:space="preserve" xmlns="http://www.w3.org/2000/svg" xmlns:xlink="http://www.w3.org/1999/xlink"><style type="text/css">
	.st0{fill:url(#SVGID_1_);}
	.st1{fill:url(#SVGID_2_);}
	.st2{opacity:0.4;fill:url(#SVGID_3_);}
	.st3{fill:url(#SVGID_4_);}
	.st4{fill:url(#SVGID_5_);}
	.st5{fill:url(#SVGID_6_);}
	.st6{fill:#DDDDDD;}
	.st7{fill:none;stroke:#B7B7B7;stroke-width:0.5133;stroke-linecap:round;stroke-linejoin:round;stroke-miterlimit:10;}
	.st8{fill:url(#SVGID_7_);}
	.st9{fill:url(#SVGID_8_);}
	.st10{fill:url(#SVGID_9_);}
	.st11{fill:url(#SVGID_10_);}
	.st12{fill:url(#SVGID_11_);}
	.st13{opacity:0.4;fill:url(#SVGID_12_);}
	.st14{opacity:0.4;fill:url(#SVGID_13_);}
	.st15{fill:url(#SVGID_14_);}
	.st16{fill:url(#SVGID_15_);}
	.st17{fill:url(#SVGID_16_);}
	.st18{fill:url(#SVGID_17_);}
	.st19{fill:url(#SVGID_18_);}
	.st20{fill:url(#SVGID_19_);}
	.st21{fill:url(#SVGID_20_);}
	.st22{fill:url(#SVGID_21_);}
	.st23{fill:url(#SVGID_22_);}
	.st24{fill:url(#SVGID_23_);}
	.st25{fill:url(#SVGID_24_);}
	.st26{fill:url(#SVGID_25_);}
	.st27{fill:url(#SVGID_26_);}
	.st28{fill:url(#SVGID_27_);}
	.st29{fill:url(#SVGID_28_);}
	.st30{fill:url(#SVGID_29_);}
	.st31{fill:url(#SVGID_30_);}
	.st32{fill:url(#SVGID_31_);}
	.st33{fill:url(#SVGID_32_);}
	.st34{fill:url(#SVGID_33_);}
	.st35{fill:url(#SVGID_34_);}
	.st36{fill:url(#SVGID_35_);}
	.st37{fill:url(#SVGID_36_);}
	.st38{fill:url(#SVGID_37_);}
	.st39{fill:url(#SVGID_38_);}
	.st40{fill:url(#SVGID_39_);}
	.st41{fill:url(#SVGID_40_);}
	.st42{fill:url(#SVGID_41_);}
	.st43{fill:url(#SVGID_42_);}
	.st44{fill:url(#SVGID_43_);}
	.st45{fill:url(#SVGID_44_);}
	.st46{fill:url(#SVGID_45_);}
	.st47{fill:url(#SVGID_46_);}
	.st48{fill:url(#SVGID_47_);}
	.st49{fill:url(#SVGID_48_);}
	.st50{fill:url(#SVGID_49_);}
	.st51{fill:url(#SVGID_50_);}
	.st52{fill:url(#SVGID_51_);}
	.st53{fill:url(#SVGID_52_);}
	.st54{fill:url(#SVGID_53_);}
	.st55{fill:url(#SVGID_54_);}
	.st56{fill:url(#SVGID_55_);}
	.st57{fill:url(#SVGID_56_);}
	.st58{fill:url(#SVGID_57_);}
	.st59{fill:url(#SVGID_58_);}
	.st60{fill:url(#SVGID_59_);}
	.st61{fill:url(#SVGID_60_);}
	.st62{fill:url(#SVGID_61_);}
	.st63{fill:url(#SVGID_62_);}
	.st64{fill:url(#SVGID_63_);}
	.st65{fill:url(#SVGID_64_);}
	.st66{fill:url(#SVGID_65_);}
	.st67{fill:url(#SVGID_66_);}
	.st68{fill:url(#SVGID_67_);}
	.st69{fill:url(#SVGID_68_);}
	.st70{fill:url(#SVGID_69_);}
	.st71{fill:url(#SVGID_70_);}
	.st72{fill:url(#SVGID_71_);}
	.st73{fill:url(#SVGID_72_);}
	.st74{fill:url(#SVGID_73_);}
	.st75{fill:url(#SVGID_74_);}
	.st76{fill:url(#SVGID_75_);}
	.st77{fill:url(#SVGID_76_);}
	.st78{fill:url(#SVGID_77_);}
	.st79{fill:url(#SVGID_78_);}
	.st80{fill:url(#SVGID_79_);}
	.st81{opacity:0.6;fill:url(#SVGID_80_);}
	.st82{fill:#FFFFFF;}
	.st83{fill:#67A8DC;}
	.st84{fill:#F9F4E9;}
	.st85{fill:url(#SVGID_81_);}
	.st86{fill:#33333D;}
	.st87{fill:url(#SVGID_82_);}
	.st88{fill:url(#SVGID_83_);}
	.st89{opacity:0.9;fill:#E2EBF8;}
	.st90{fill:#D3D3D3;}
	.st91{fill:#F2F2F1;}
	.st92{fill:url(#SVGID_84_);}
	.st93{fill:url(#SVGID_85_);}
	.st94{fill:url(#SVGID_86_);}
	.st95{fill:url(#SVGID_87_);}
	.st96{fill:url(#SVGID_88_);}
	.st97{fill:url(#SVGID_89_);}
	.st98{fill:url(#SVGID_90_);}
	.st99{fill:#E79671;}
	.st100{fill:url(#SVGID_91_);}
	.st101{fill:#F6AD86;}
	.st102{fill:url(#SVGID_92_);}
	.st103{fill:url(#SVGID_93_);}
	.st104{fill:url(#SVGID_94_);}
	.st105{fill:url(#SVGID_95_);}
	.st106{fill:url(#SVGID_96_);}
	.st107{fill:url(#SVGID_97_);}
	.st108{fill:url(#SVGID_98_);}
	.st109{fill:url(#SVGID_99_);}
	.st110{fill:url(#SVGID_100_);}
	.st111{fill:url(#SVGID_101_);}
	.st112{fill:url(#SVGID_102_);}
	.st113{opacity:0.3;clip-path:url(#SVGID_104_);fill:url(#SVGID_105_);}
</style><g><g><g><linearGradient gradientUnits="userSpaceOnUse" id="SVGID_1_" x1="249.7218" x2="269.7953" y1="238.3275" y2="260.7046"><stop offset="0" style="stop-color:#36277C"/><stop offset="1" style="stop-color:#47A9E0"/></linearGradient><path class="st0" d="M125.6,316.1c1.1,1.1,2.3,2.2,3.5,3.3h7.3c-14.1-13.2,18.9-84.7,18.9-105.6c0-40.1,32.5-72.5,72.5-72.5     c28.5,0,53.3,16.5,65.1,40.5h7.3c-6.8-13.8,41.3-58.7,29.8-70.2c-56.4-56.4-148.1-56.4-204.5,0     C69.1,168.1,69.2,259.7,125.6,316.1z"/><linearGradient gradientUnits="userSpaceOnUse" id="SVGID_2_" x1="32.6462" x2="386.5934" y1="307.1735" y2="17.6629"><stop offset="0" style="stop-color:#36277C"/><stop offset="1" style="stop-color:#47A9E0"/></linearGradient><path class="st1" d="M133,316.1c1.1,1.1,2.3,2.2,3.5,3.3l49.2-52.6c-14.1-13.2-23-32.1-23-53c0-40.1,32.5-72.5,72.5-72.5     c28.5,0,53.3,16.5,65.1,40.5l64.6-31.9c-6.8-13.8-15.9-26.8-27.4-38.3c-56.4-56.4-148.1-56.4-204.5,0     C76.5,168.1,76.5,259.7,133,316.1z"/></g><linearGradient gradientUnits="userSpaceOnUse" id="SVGID_3_" x1="35.1459" x2="389.0945" y1="299.7317" y2="10.2199"><stop offset="0" style="stop-color:#E6224B"/><stop offset="1" style="stop-color:#FAB327"/></linearGradient><path class="st2" d="M135.5,308.7c1.1,1.1,2.3,2.2,3.5,3.3l49.2-52.6c-14.1-13.2-23-32.1-23-53c0-40.1,32.5-72.5,72.5-72.5    c28.5,0,53.3,16.5,65.1,40.5l64.6-31.9c-6.8-13.8-15.9-26.8-27.4-38.3c-56.4-56.4-148.1-56.4-204.5,0    C79,160.6,79,252.2,135.5,308.7z"/></g><linearGradient gradientTransform="matrix(-1 0 0 1 493.4326 0)" gradientUnits="userSpaceOnUse" id="SVGID_4_" x1="438.5587" x2="349.6882" y1="399.12" y2="326.7959"><stop offset="0" style="stop-color:#008261"/><stop offset="1" style="stop-color:#A6C715"/></linearGradient><path class="st3" d="M59.2,387.2c0,3.3,0.3,6.5,0.9,9.6h31.7c-0.6-3.1-0.9-6.3-0.9-9.6c0-8.5,2-16.6,5.5-23.7H64.7   C61.2,370.6,59.2,378.6,59.2,387.2z"/><linearGradient gradientTransform="matrix(-1 0 0 1 493.4326 0)" gradientUnits="userSpaceOnUse" id="SVGID_5_" x1="436.6474" x2="437.0431" y1="370.824" y2="282.3955"><stop offset="0" style="stop-color:#008261"/><stop offset="1" style="stop-color:#A6C715"/></linearGradient><polygon class="st4" points="17,339.9 45.2,353.8 64.7,363.5 96.4,363.5 48.7,339.9  "/><linearGradient gradientTransform="matrix(-1 0 0 1 493.4326 0)" gradientUnits="userSpaceOnUse" id="SVGID_6_" x1="458.0736" x2="458.0736" y1="500.747" y2="347.8002"><stop offset="0" style="stop-color:#008261"/><stop offset="1" style="stop-color:#A6C715"/></linearGradient><path class="st5" d="M6.4,396.8H60c-0.6-3.1-0.9-6.3-0.9-9.6c0-8.5,2-16.6,5.5-23.7l-19.5-9.6L17,339.9   C8.2,357.7,4.7,377.5,6.4,396.8z"/><g><g><path class="st6" d="M440.5,428c0,1.6-42.7,2.9-95.3,2.9c-52.6,0-95.3-1.3-95.3-2.9c0-1.6,42.7-2.9,95.3-2.9     C397.8,425.1,440.5,426.4,440.5,428z"/><g><g><linearGradient gradientUnits="userSpaceOnUse" id="SVGID_7_" x1="308.9237" x2="223.8881" y1="439.6192" y2="326.4727"><stop offset="0" style="stop-color:#E6224B"/><stop offset="1" style="stop-color:#FAB327"/></linearGradient><path class="st8" d="M286.6,416.5h-42.9c28.2,11.2,68.9,13.3,103.2,10.1l0,0C326.5,427.6,305.9,424.2,286.6,416.5z"/><linearGradient gradientUnits="userSpaceOnUse" id="SVGID_8_" x1="374.5827" x2="321.9981" y1="337.4274" y2="267.4594"><stop offset="0" style="stop-color:#E6224B"/><stop offset="1" style="stop-color:#FAB327"/></linearGradient><path class="st9" d="M411.1,297.6c-7.1,32.7-36.2,57.1-70.9,57.1c-7.5,0-14.7-1.1-21.4-3.2c24.8-7.7,43.9-28.2,49.5-53.9H411.1       z"/><linearGradient gradientUnits="userSpaceOnUse" id="SVGID_9_" x1="418.8843" x2="296.4119" y1="300.0107" y2="200.3409"><stop offset="0" style="stop-color:#293275"/><stop offset="1" style="stop-color:#61B55A"/></linearGradient><path class="st10" d="M405.2,250h-42.9c4.8,9.7,7.5,20.6,7.5,32.1c0,5.3-0.6,10.5-1.7,15.5h42.9c1.1-5,1.7-10.2,1.7-15.5       C412.8,270.6,410,259.7,405.2,250z"/><linearGradient gradientUnits="userSpaceOnUse" id="SVGID_10_" x1="384.0115" x2="384.0115" y1="521.7863" y2="278.2331"><stop offset="0" style="stop-color:#E6224B"/><stop offset="1" style="stop-color:#FAB327"/></linearGradient><path class="st11" d="M286.6,416.5c52.1,20.7,113.7,10.1,155.8-32.1c20.4-20.4,33.4-45.2,39-71.4l-70.3-15.4       c-7.1,32.7-36.2,57.1-70.9,57.1c-9.5,0-18.6-1.8-26.9-5.1L286.6,416.5z"/><linearGradient gradientUnits="userSpaceOnUse" id="SVGID_11_" x1="445.0141" x2="445.0141" y1="486.4158" y2="231.3059"><stop offset="0" style="stop-color:#293275"/><stop offset="1" style="stop-color:#61B55A"/></linearGradient><path class="st12" d="M412.8,282.1c0,5.3-0.6,10.5-1.7,15.5l70.3,15.4c7-31.6,3.1-65.2-11.6-94.9l-64.6,31.9       C410.1,259.7,412.8,270.6,412.8,282.1z"/><linearGradient gradientUnits="userSpaceOnUse" id="SVGID_12_" x1="451.5174" x2="451.5174" y1="467.9034" y2="232.7093"><stop offset="0" style="stop-color:#E6224B"/><stop offset="1" style="stop-color:#FAB327"/></linearGradient><path class="st13" d="M421.8,279.6c0,4.9-0.5,9.7-1.5,14.3l64.8,14.2c6.4-29.2,2.9-60.1-10.7-87.4L414.9,250       C419.3,258.9,421.8,268.9,421.8,279.6z"/><linearGradient gradientUnits="userSpaceOnUse" id="SVGID_13_" x1="388.9092" x2="388.9092" y1="520.1579" y2="276.6021"><stop offset="0" style="stop-color:#E6224B"/><stop offset="1" style="stop-color:#FAB327"/></linearGradient><path class="st14" d="M291.5,414.9c52.1,20.7,113.7,10.1,155.8-32.1c20.4-20.4,33.3-45.2,39-71.4L416,296       c-7.1,32.7-36.2,57.1-70.9,57.1c-9.5,0-18.6-1.8-26.9-5.2L291.5,414.9z"/></g><linearGradient gradientUnits="userSpaceOnUse" id="SVGID_14_" x1="415.9892" x2="416.5253" y1="260.0171" y2="140.2331"><stop offset="0" style="stop-color:#293275"/><stop offset="1" style="stop-color:#61B55A"/></linearGradient><polygon class="st15" points="469.8,218.2 431.7,237 405.2,250 362.4,250 427,218.2     "/><linearGradient gradientUnits="userSpaceOnUse" id="SVGID_15_" x1="290.7582" x2="214.0174" y1="399.3306" y2="297.2209"><stop offset="0" style="stop-color:#E6224B"/><stop offset="1" style="stop-color:#FAB327"/></linearGradient><polygon class="st16" points="313.3,349.6 286.6,416.5 243.7,416.5 270.4,349.6     "/></g></g><g><path class="st6" d="M506,427.2c0,0.4-10.5,0.7-23.5,0.7c-13,0-23.5-0.3-23.5-0.7c0-0.4,10.5-0.7,23.5-0.7     C495.5,426.5,506,426.8,506,427.2z"/><linearGradient gradientUnits="userSpaceOnUse" id="SVGID_16_" x1="442.181" x2="473.2404" y1="271.9399" y2="361.7517"><stop offset="0" style="stop-color:#C9C8C8"/><stop offset="1" style="stop-color:#FFFFFF;stop-opacity:0"/></linearGradient><path class="st17" d="M475.9,274.4c0-1-0.6-1.7-1.4-1.7c-0.8,0-1.4,0.8-1.4,1.7l0.2,25.5H442l-0.2-25.5c0-1-0.6-1.7-1.4-1.7     c-0.7,0-1.4,0.8-1.4,1.7l0.8,86.2h2.7l-0.2-22.3h31.4l0.2,22.3h2.7L475.9,274.4z M442.3,334.8l-0.3-31.5h31.4l0.3,31.5H442.3z"/><linearGradient gradientUnits="userSpaceOnUse" id="SVGID_17_" x1="434.8523" x2="549.2153" y1="278.9186" y2="509.7493"><stop offset="0" style="stop-color:#293275"/><stop offset="1" style="stop-color:#61B55A"/></linearGradient><path class="st18" d="M474.7,272.6c-0.8,0-1.3,0.6-1.1,1.4l3.2,19.9h-31.4l-3.2-19.9c-0.1-0.8-0.8-1.4-1.6-1.4     c-0.8,0-1.3,0.6-1.1,1.4l24.5,152c0.1,0.8,0.8,1.4,1.6,1.4c0.8,0,1.3-0.6,1.1-1.4l-3.2-19.9h31.4L498,426     c0.1,0.8,0.8,1.4,1.6,1.4s1.3-0.6,1.1-1.4l-24.5-152C476.1,273.2,475.4,272.6,474.7,272.6z M450.2,324h31.4l4,24.6h-31.4     L450.2,324z M454.6,351.3H486l4,24.6h-31.4L454.6,351.3z M477.2,296.6l4,24.6h-31.4l-4-24.6H477.2z M462.9,403.3l-4-24.6h31.4     l4,24.6H462.9z"/></g><g><path class="st6" d="M386,442.3c0,0.8-7.6,1.4-17,1.4c-9.4,0-17-0.6-17-1.4c0-0.8,7.6-1.4,17-1.4C378.4,441,386,441.6,386,442.3z     "/><g><linearGradient gradientUnits="userSpaceOnUse" id="SVGID_18_" x1="368.3365" x2="369.8567" y1="407.9063" y2="393.3128"><stop offset="0" style="stop-color:#36277C"/><stop offset="1" style="stop-color:#47A9E0"/></linearGradient><path class="st19" d="M364.2,390.8c-3.4-1-4.7,1.5-4.3,3.4c0.5,2.7,2,2.9-1.5,5.3c-2.6,1.8-3.1,5.3-0.1,7c4.2,2.3-0.1,4.4-1,6.5      c-1.9,4.4,1.4,5.4,6.8,7.4c5.5,2.1,9.5,0.9,13.2-2.7c2.7-2.6,4.3-5.5,2.5-8.1c-2.5-3.7-6.4-1-5-4.7c0.8-2.2,0.8-6.2-4.1-6.5      C365.7,398.4,369.1,392.2,364.2,390.8z"/><linearGradient gradientTransform="matrix(-1 -8.000000e-03 -8.000000e-03 1 719.9927 -6.1375)" gradientUnits="userSpaceOnUse" id="SVGID_19_" x1="352.0753" x2="365.5705" y1="431.0397" y2="416.578"><stop offset="0" style="stop-color:#36277C"/><stop offset="1" style="stop-color:#47A9E0"/></linearGradient><path class="st20" d="M365.5,421.7c3.8-2.4-1.1-9.8-9.9-10.5c0,0-0.9,3.9-0.1,7.4C356.3,421.5,360.2,425.1,365.5,421.7z"/><linearGradient gradientTransform="matrix(-0.9276 -0.3736 -0.3736 0.9276 801.4311 136.3882)" gradientUnits="userSpaceOnUse" id="SVGID_20_" x1="293.8415" x2="307.3377" y1="426.536" y2="412.0733"><stop offset="0" style="stop-color:#36277C"/><stop offset="1" style="stop-color:#47A9E0"/></linearGradient><path class="st21" d="M370.6,422.3c4.4-0.9,2.6-9.5-5.4-13.4c0,0-2.3,3.3-2.8,6.8C362.1,418.7,364.4,423.5,370.6,422.3z"/><linearGradient gradientTransform="matrix(-0.6616 -0.7498 -0.7498 0.6616 823.1308 336.3791)" gradientUnits="userSpaceOnUse" id="SVGID_21_" x1="233.4255" x2="245.6431" y1="394.5849" y2="381.4924"><stop offset="0" style="stop-color:#36277C"/><stop offset="1" style="stop-color:#47A9E0"/></linearGradient><path class="st22" d="M373.7,422.9c3.9,1.1,6-6.6,1.1-13c0,0-3.2,1.7-5,4.4C368.3,416.6,368.2,421.4,373.7,422.9z"/><linearGradient gradientTransform="matrix(-0.2661 -0.964 -0.964 0.2661 754.4592 519.0561)" gradientUnits="userSpaceOnUse" id="SVGID_22_" x1="195.3337" x2="206.3087" y1="339.8002" y2="328.0393"><stop offset="0" style="stop-color:#36277C"/><stop offset="1" style="stop-color:#47A9E0"/></linearGradient><path class="st23" d="M375.4,421.9c2.7,2.4,7.4-3,6-10.1c0,0-3.3,0.1-5.8,1.6C373.5,414.7,371.6,418.5,375.4,421.9z"/><g><linearGradient gradientUnits="userSpaceOnUse" id="SVGID_23_" x1="372.7473" x2="418.6308" y1="374.4177" y2="347.6524"><stop offset="0" style="stop-color:#36277C"/><stop offset="1" style="stop-color:#47A9E0"/></linearGradient><path class="st24" d="M392.4,332.4c-6.1-4.5-10.5-0.5-11.2,3.5c-0.9,5.7,1.8,7.3-7,9.5c-6.5,1.6-10.2,8.2-5.5,13.9       c6.6,7.9-3.6,8.6-7,12.2c-7.1,7.4-1.3,11.8,7.8,19.9c9.3,8.3,18.3,8.9,28.3,4.6c7.4-3.2,12.8-7.8,11.2-14.2       c-2.2-9.2-11.9-6.9-6.3-13.1c3.4-3.7,6.4-11.8-3.3-16C389.7,348.5,401.1,338.8,392.4,332.4z"/><g><linearGradient gradientTransform="matrix(-0.8946 -0.4468 -0.4468 0.8946 1041.0164 -133.3379)" gradientUnits="userSpaceOnUse" id="SVGID_24_" x1="338.6161" x2="381.4109" y1="799.4846" y2="721.4606"><stop offset="0" style="stop-color:#36277C"/><stop offset="1" style="stop-color:#47A9E0"/></linearGradient><path class="st25" d="M370.3,430.5l1-2.5l11.2-28.8c0.6-1.7,1.2-3.4,1.7-5.1l0.9-2.5c0.3-0.8,0.5-1.7,0.7-2.6        c0.5-1.7,0.9-3.4,1.4-5.2c1.5-7,2.5-14.1,2.7-21.2c0.2-7.1-0.2-14.3-1.9-21.2l-0.2,0.1c0.1,0.9,0.3,1.8,0.3,2.6        c0.1,0.9,0.2,1.8,0.3,2.6c0.1,0.9,0.1,1.8,0.2,2.6c0,0.9,0.1,1.8,0.1,2.6c0,1.8,0.1,3.5,0,5.3c0,0.9,0,1.8-0.1,2.6l-0.2,2.6        l-0.2,2.6l-0.3,2.6l-0.3,2.6c-0.1,0.9-0.3,1.7-0.4,2.6c-0.1,0.9-0.3,1.7-0.4,2.6l-0.2,1.3c-0.1,0.4-0.2,0.9-0.3,1.3l-1.1,5.1        c-0.4,1.7-0.9,3.4-1.3,5.1c-0.2,0.8-0.4,1.7-0.7,2.5c-0.3,0.8-0.6,1.7-0.8,2.5c-0.5,1.7-1,3.4-1.6,5        c-0.6,1.6-10.4,27.1-11,28.8l-0.9,2.5"/><linearGradient gradientTransform="matrix(-0.8946 -0.4468 -0.4468 0.8946 1041.0164 -133.3379)" gradientUnits="userSpaceOnUse" id="SVGID_25_" x1="367.953" x2="372.7516" y1="745.2744" y2="736.5255"><stop offset="0" style="stop-color:#36277C"/><stop offset="1" style="stop-color:#47A9E0"/></linearGradient><path class="st26" d="M384.6,368.3c-0.6-1.2-1.3-2.2-2.2-3.1c-0.4-0.5-0.9-0.9-1.3-1.3c-0.5-0.4-0.9-0.8-1.4-1.2        c-1-0.7-2-1.4-3.2-1.9c-1.1-0.5-2.3-0.9-3.6-1l-0.1,0.1c2.2,1.1,4.2,2.4,6.1,3.9C380.8,365.2,382.7,366.7,384.6,368.3        L384.6,368.3z"/><linearGradient gradientTransform="matrix(-0.8946 -0.4468 -0.4468 0.8946 1041.0164 -133.3379)" gradientUnits="userSpaceOnUse" id="SVGID_26_" x1="371.2339" x2="374.2655" y1="731.9841" y2="724.0548"><stop offset="0" style="stop-color:#36277C"/><stop offset="1" style="stop-color:#47A9E0"/></linearGradient><path class="st27" d="M386.7,355.6c-0.3-1.1-0.8-2-1.3-2.9c-0.3-0.4-0.6-0.8-0.9-1.3c-0.3-0.4-0.7-0.8-1-1.1        c-0.8-0.7-1.5-1.4-2.5-1.9c-0.9-0.5-1.9-1-3-1.2l-0.1,0.1c1.7,1.1,3.2,2.5,4.6,3.9c1.4,1.4,2.8,2.9,4.1,4.4L386.7,355.6z"/><linearGradient gradientTransform="matrix(-0.8946 -0.4468 -0.4468 0.8946 1041.0164 -133.3379)" gradientUnits="userSpaceOnUse" id="SVGID_27_" x1="354.0231" x2="354.0457" y1="740.368" y2="732.8598"><stop offset="0" style="stop-color:#36277C"/><stop offset="1" style="stop-color:#47A9E0"/></linearGradient><path class="st28" d="M392.2,370.2c0.7-0.4,1.2-0.8,1.7-1.2c0.5-0.4,0.9-0.8,1.4-1.3c0.2-0.2,0.4-0.4,0.6-0.6l0.3-0.3        c0.1-0.1,0.2-0.2,0.3-0.3c0.4-0.4,0.9-0.7,1.5-1.1l0-0.1c-0.7-0.1-1.4,0.1-2,0.4c-0.6,0.3-1.2,0.7-1.6,1.2        c-1,1-1.7,2.1-2.3,3.3L392.2,370.2z"/><linearGradient gradientTransform="matrix(-0.8946 -0.4468 -0.4468 0.8946 1041.0164 -133.3379)" gradientUnits="userSpaceOnUse" id="SVGID_28_" x1="364.2826" x2="370.6456" y1="760.4859" y2="748.8847"><stop offset="0" style="stop-color:#36277C"/><stop offset="1" style="stop-color:#47A9E0"/></linearGradient><path class="st29" d="M382.9,383.3c-0.8-1.5-1.8-2.9-2.9-4.1c-0.5-0.6-1.1-1.2-1.7-1.7c-0.6-0.5-1.3-1-1.9-1.6        c-1.3-1-2.7-1.8-4.2-2.5c-1.5-0.7-3.1-1.2-4.8-1.4l-0.1,0.2c2.9,1.4,5.5,3.2,8.1,5.1c2.6,1.9,5.1,3.9,7.4,6.1L382.9,383.3z"/><linearGradient gradientTransform="matrix(-0.8946 -0.4468 -0.4468 0.8946 1041.0164 -133.3379)" gradientUnits="userSpaceOnUse" id="SVGID_29_" x1="346.252" x2="346.2876" y1="754.29" y2="742.428"><stop offset="0" style="stop-color:#36277C"/><stop offset="1" style="stop-color:#47A9E0"/></linearGradient><path class="st30" d="M391.9,385.6c1.5-0.8,2.8-2.1,4.1-3.3c1.2-1.2,2.6-2.3,4.1-3.2c0.4-0.2,0.8-0.5,1.2-0.7        c0.2-0.1,0.5-0.4,0.1-0.4c-0.2,0-0.5,0.1-0.7,0.2c-0.4,0.1-0.8,0.2-1.2,0.3c-0.8,0.3-1.6,0.6-2.4,1c-2.4,1.3-4.2,3.5-5.4,6        L391.9,385.6z"/><linearGradient gradientTransform="matrix(-0.8946 -0.4468 -0.4468 0.8946 1041.0164 -133.3379)" gradientUnits="userSpaceOnUse" id="SVGID_30_" x1="360.4842" x2="361.7592" y1="727.6623" y2="721.9482"><stop offset="0" style="stop-color:#36277C"/><stop offset="1" style="stop-color:#47A9E0"/></linearGradient><path class="st31" d="M392.4,356.3c0.4-0.4,0.8-0.8,1-1.2c0.3-0.4,0.5-0.8,0.8-1.2c0.2-0.4,0.5-0.8,0.7-1.1        c0.3-0.4,0.5-0.7,0.9-1.1l0-0.1c-0.5,0.1-1,0.3-1.4,0.7c-0.4,0.3-0.7,0.8-1,1.2C392.9,354.3,392.5,355.3,392.4,356.3        L392.4,356.3z"/></g></g><g><linearGradient gradientUnits="userSpaceOnUse" id="SVGID_31_" x1="328.8078" x2="348.1169" y1="326.8665" y2="372.5582"><stop offset="0" style="stop-color:#36277C"/><stop offset="1" style="stop-color:#47A9E0"/></linearGradient><path class="st32" d="M329.6,306.6c-11.9-2.1-15.4,6.8-13.5,13c2.7,8.8,7.8,9.2-3.3,18.6c-8.2,6.9-8.7,19.1,2.1,23.8       c15.1,6.6,1,15-1.4,22.6c-4.8,15.7,6.7,17.9,25.5,22.9c19.3,5.2,32.6-0.3,43.9-13.6c8.3-9.8,12.7-20.3,5.9-28.4       c-9.8-11.6-22.1-1.3-18.5-14.3c2.2-7.8,0.7-21.5-16.2-20.6C337.3,331.7,346.8,309.6,329.6,306.6z"/><g><linearGradient gradientTransform="matrix(-1 0 0 1 633.2129 0)" gradientUnits="userSpaceOnUse" id="SVGID_32_" x1="257.6786" x2="314.238" y1="431.5792" y2="328.4595"><stop offset="0" style="stop-color:#36277C"/><stop offset="1" style="stop-color:#47A9E0"/></linearGradient><path class="st33" d="M364.4,436.9c0,0,0-10.6-0.2-16.4c-0.2-4.1-0.7-10.9-0.7-10.9c-0.3-2.8-0.8-5.7-1.1-8.5l-0.6-4.2        c-0.2-1.4-0.6-2.8-0.8-4.2c-0.6-2.8-1.1-5.6-1.7-8.4c-2.8-11.1-6.5-21.9-11.3-32.3c-4.8-10.3-10.6-20.3-18-29.1l-0.2,0.2        c0.8,1.2,1.6,2.3,2.4,3.6c0.8,1.2,1.5,2.4,2.3,3.6c0.8,1.2,1.4,2.4,2.1,3.7c0.7,1.3,1.4,2.5,2,3.7c1.3,2.5,2.6,5,3.8,7.6        c0.6,1.3,1.2,2.6,1.8,3.8l1.6,3.9l1.6,3.9l1.5,4l1.5,4c0.5,1.3,0.9,2.7,1.3,4c0.4,1.3,0.9,2.7,1.3,4l0.7,2        c0.2,0.7,0.4,1.4,0.5,2l2.1,8.2c0.6,2.7,1.2,5.5,1.8,8.2c0.3,1.4,0.6,2.7,0.9,4.1c0.2,1.4,0.4,2.8,0.6,4.2        c0.4,2.8,1,5.6,1.3,8.3c0.3,2.8,0.9,7.1,1,10.8c0.1,3.7,0.4,16.4,0.4,16.4"/><linearGradient gradientTransform="matrix(-1 0 0 1 633.2129 0)" gradientUnits="userSpaceOnUse" id="SVGID_33_" x1="296.734" x2="304.4292" y1="368.8091" y2="354.7792"><stop offset="0" style="stop-color:#36277C"/><stop offset="1" style="stop-color:#47A9E0"/></linearGradient><path class="st34" d="M344.2,363.7c-1.7-1.3-3.5-2.1-5.3-2.8c-0.9-0.4-1.9-0.6-2.8-0.9c-1-0.3-1.9-0.5-2.9-0.7        c-2-0.3-3.9-0.5-5.9-0.5c-2,0.1-4,0.3-6,1.1l0,0.2c3.9,0,7.7,0.5,11.5,1.2c3.8,0.7,7.6,1.5,11.3,2.6L344.2,363.7z"/><linearGradient gradientTransform="matrix(-1 0 0 1 633.2129 0)" gradientUnits="userSpaceOnUse" id="SVGID_34_" x1="301.9934" x2="306.8543" y1="347.4959" y2="334.7822"><stop offset="0" style="stop-color:#36277C"/><stop offset="1" style="stop-color:#47A9E0"/></linearGradient><path class="st35" d="M338.1,344c-1.2-1.3-2.5-2.3-4-3.2c-0.7-0.4-1.5-0.8-2.2-1.1c-0.8-0.3-1.5-0.6-2.3-0.9        c-1.6-0.5-3.2-0.9-4.9-1c-1.7-0.1-3.4-0.1-5.1,0.5l0,0.2c3.2,0.4,6.3,1.3,9.4,2.3c3.1,1,6.1,2.1,9.1,3.4L338.1,344z"/><linearGradient gradientTransform="matrix(-1 0 0 1 633.2129 0)" gradientUnits="userSpaceOnUse" id="SVGID_35_" x1="274.3955" x2="274.4316" y1="360.9384" y2="348.8987"><stop offset="0" style="stop-color:#36277C"/><stop offset="1" style="stop-color:#47A9E0"/></linearGradient><path class="st36" d="M356.4,360.9c0.7-1,1.2-2,1.5-3c0.4-1,0.7-1.9,1-2.8c0.1-0.5,0.3-0.9,0.4-1.3l0.2-0.6        c0.1-0.2,0.2-0.4,0.2-0.6c0.4-0.8,0.7-1.7,1.4-2.7l-0.1-0.2c-1,0.4-1.9,1.1-2.6,2c-0.7,0.9-1.1,1.9-1.5,2.9        c-0.7,2.1-1,4.2-1,6.4L356.4,360.9z"/><linearGradient gradientTransform="matrix(-1 0 0 1 633.2129 0)" gradientUnits="userSpaceOnUse" id="SVGID_36_" x1="290.8467" x2="301.0492" y1="393.1995" y2="374.5983"><stop offset="0" style="stop-color:#36277C"/><stop offset="1" style="stop-color:#47A9E0"/></linearGradient><path class="st37" d="M352.5,386.4c-2.2-1.7-4.6-2.8-7-3.8c-1.2-0.5-2.5-0.8-3.7-1.2c-1.3-0.3-2.5-0.6-3.8-0.9        c-2.6-0.4-5.2-0.7-7.9-0.6c-2.7,0.1-5.4,0.4-7.9,1.5l0,0.3c5.1,0,10.2,0.6,15.3,1.6c5.1,0.9,10.1,2,15,3.4L352.5,386.4z"/><linearGradient gradientTransform="matrix(-1 0 0 1 633.2129 0)" gradientUnits="userSpaceOnUse" id="SVGID_37_" x1="261.9351" x2="261.9921" y1="383.2632" y2="364.243"><stop offset="0" style="stop-color:#36277C"/><stop offset="1" style="stop-color:#47A9E0"/></linearGradient><path class="st38" d="M367.1,383.3c1.6-2.3,2.5-5.1,3.4-7.7c0.9-2.6,2-5.2,3.5-7.5c0.4-0.6,0.8-1.2,1.2-1.8        c0.2-0.3,0.5-0.9-0.1-0.6c-0.3,0.2-0.6,0.5-0.8,0.7c-0.5,0.4-1,0.9-1.4,1.3c-1,1-1.9,2.1-2.7,3.2c-2.6,3.6-3.5,8.1-3.4,12.5        H367.1z"/><linearGradient gradientTransform="matrix(-1 0 0 1 633.2129 0)" gradientUnits="userSpaceOnUse" id="SVGID_38_" x1="284.7571" x2="286.8017" y1="340.5656" y2="331.4027"><stop offset="0" style="stop-color:#36277C"/><stop offset="1" style="stop-color:#47A9E0"/></linearGradient><path class="st39" d="M346.8,340.9c0.3-0.9,0.5-1.7,0.6-2.5c0.1-0.8,0.2-1.6,0.3-2.3c0-0.7,0.1-1.4,0.2-2.1        c0.1-0.7,0.2-1.4,0.5-2.3l-0.1-0.1c-0.7,0.5-1.2,1.2-1.5,2c-0.3,0.8-0.5,1.6-0.6,2.4c-0.1,1.7,0.1,3.3,0.4,5L346.8,340.9z"/></g></g><g><linearGradient gradientTransform="matrix(-1 0 0 1 633.2129 0)" gradientUnits="userSpaceOnUse" id="SVGID_39_" x1="264.231" x2="264.231" y1="419.1975" y2="439.8074"><stop offset="0" style="stop-color:#E6224B"/><stop offset="1" style="stop-color:#EB5C84"/></linearGradient><path class="st40" d="M359.7,442.3h18.6c0.9,0,1.7-0.7,1.8-1.6l2.6-21.5c0.1-1.1-0.7-2-1.8-2h-23.7c-1.1,0-1.9,1-1.8,2       l2.6,21.5C358,441.6,358.8,442.3,359.7,442.3z"/><linearGradient gradientTransform="matrix(-1 0 0 1 633.2129 0)" gradientUnits="userSpaceOnUse" id="SVGID_40_" x1="264.2308" x2="264.2308" y1="424.4566" y2="415.4785"><stop offset="0" style="stop-color:#E6224B"/><stop offset="1" style="stop-color:#EB5C84"/></linearGradient><path class="st41" d="M354.7,421.4h28.5c0.6,0,1.1-0.4,1.2-1l0.6-3.7c0.1-0.7-0.5-1.4-1.2-1.4h-29.6c-0.7,0-1.3,0.7-1.2,1.4       l0.6,3.7C353.6,421,354.1,421.4,354.7,421.4z"/></g></g></g><g><path class="st6" d="M260.5,424.1c0,1.3-13.9,2.4-31,2.4c-17.1,0-31-1.1-31-2.4c0-1.3,13.9-2.4,31-2.4     C246.6,421.8,260.5,422.8,260.5,424.1z"/><linearGradient gradientTransform="matrix(-1 -8.000000e-03 -8.000000e-03 1 719.9927 -6.1375)" gradientUnits="userSpaceOnUse" id="SVGID_41_" x1="495.4684" x2="522.744" y1="391.1021" y2="361.8734"><stop offset="0" style="stop-color:#008261"/><stop offset="1" style="stop-color:#A6C715"/></linearGradient><path class="st42" d="M223.5,380.3c7.7-4.9-2.2-19.8-20-21.3c0,0-1.9,7.9-0.2,14.9C204.9,379.8,212.8,387.1,223.5,380.3z"/><linearGradient gradientTransform="matrix(-0.9276 -0.3736 -0.3736 0.9276 801.4311 136.3882)" gradientUnits="userSpaceOnUse" id="SVGID_42_" x1="437.062" x2="464.3407" y1="440.124" y2="410.8919"><stop offset="0" style="stop-color:#008261"/><stop offset="1" style="stop-color:#A6C715"/></linearGradient><path class="st43" d="M233.8,381.5c8.9-1.7,5.3-19.2-10.8-27.1c0,0-4.7,6.6-5.6,13.8C216.6,374.2,221.3,383.9,233.8,381.5z"/><linearGradient gradientTransform="matrix(-0.6616 -0.7498 -0.7498 0.6616 823.1308 336.3791)" gradientUnits="userSpaceOnUse" id="SVGID_43_" x1="352.9947" x2="377.6875" y1="468.5012" y2="442.04"><stop offset="0" style="stop-color:#008261"/><stop offset="1" style="stop-color:#A6C715"/></linearGradient><path class="st44" d="M240.1,382.7c7.9,2.2,12.1-13.4,2.2-26.4c0,0-6.5,3.5-10.1,8.9C229.1,369.8,229,379.6,240.1,382.7z"/><linearGradient gradientTransform="matrix(-0.2661 -0.964 -0.964 0.2661 754.4592 519.0551)" gradientUnits="userSpaceOnUse" id="SVGID_44_" x1="271.0608" x2="293.2416" y1="456.2511" y2="432.4819"><stop offset="0" style="stop-color:#008261"/><stop offset="1" style="stop-color:#A6C715"/></linearGradient><path class="st45" d="M243.5,380.7c5.5,4.9,15-6.1,12.2-20.4c0,0-6.6,0.3-11.7,3.2C239.7,366,235.8,373.8,243.5,380.7z"/><linearGradient gradientUnits="userSpaceOnUse" id="SVGID_45_" x1="285.4956" x2="219.3127" y1="394.9596" y2="293.6351"><stop offset="0" style="stop-color:#008261"/><stop offset="1" style="stop-color:#A6C715"/></linearGradient><path class="st46" d="M259.5,343.8c30.4-11.9,6.1-71.3-55.8-88.7c0,0-12.1,26.4-10.8,52.2C194.1,329.4,217,360.5,259.5,343.8z"/><linearGradient gradientTransform="matrix(-1 0 0 1 633.2129 0)" gradientUnits="userSpaceOnUse" id="SVGID_46_" x1="363.7514" x2="445.0437" y1="403.0749" y2="274.4996"><stop offset="0" style="stop-color:#008261"/><stop offset="1" style="stop-color:#A6C715"/></linearGradient><path class="st47" d="M209.9,262.6c5.7,4.1,10.5,9.2,14.2,14.9c1.1,1.3,1.9,2.8,2.8,4.3c0.8,1.5,1.8,2.8,2.5,4.4     c0.7,1.6,1.5,3.1,2.2,4.6l1.1,2.3l0.9,2.4c2.5,6.3,4.5,12.8,6,19.4c0.6,3.4,1.4,6.7,2.1,10l1.2,10.2c0.2,1.7,0.5,3.4,0.6,5.1     l0.3,5.2c0.2,3.4,0.3,6.9,0.6,10.3c-0.1,6.9,0,13.8-0.2,20.8c-0.2,3.5-0.4,6.9-0.6,10.4l-0.2,5.2l-0.1,2.6l-0.3,2.6l-0.8,10.5     l-0.4,5.3l-0.3,5.3l0.5,0.1l3.7-20.8l0.4-2.6l0.3-2.6l0.6-5.3l1.2-10.5l0.3-2.6l0.1-2.6l0.2-5.3l0.4-10.6l-0.4-10.6l-0.2-5.3     c-0.1-1.8-0.4-3.5-0.6-5.3l-1.4-10.5l-2.3-10.3c-1.8-6.8-4-13.6-7-20l-1.1-2.4l-1.3-2.3l-2.6-4.6c-0.8-1.6-2-2.9-3-4.4     c-1-1.4-2-2.9-3.2-4.2c-4.4-5.5-9.7-10.4-16-13.7L209.9,262.6z"/><linearGradient gradientTransform="matrix(0.9798 -0.1997 0.1997 0.9798 28.6606 65.004)" gradientUnits="userSpaceOnUse" id="SVGID_47_" x1="163.4202" x2="237.915" y1="288.9238" y2="209.0944"><stop offset="0" style="stop-color:#008261"/><stop offset="1" style="stop-color:#A6C715"/></linearGradient><path class="st48" d="M240.3,314.7c-23.1-9.1-4.6-54.3,42.5-67.5c0,0,9.2,20.1,8.2,39.7C290.2,303.7,272.7,327.4,240.3,314.7z"/><linearGradient gradientTransform="matrix(-1 0 0 1 633.2129 0)" gradientUnits="userSpaceOnUse" id="SVGID_48_" x1="421.023" x2="333.2753" y1="405.1422" y2="266.3567"><stop offset="0" style="stop-color:#008261"/><stop offset="1" style="stop-color:#A6C715"/></linearGradient><path class="st49" d="M277.9,252.6c-4.8,5.5-8.6,11.8-12.5,18c-1.8,3.2-3.6,6.4-5.2,9.7l-2.5,4.9l-2.3,5     c-6.1,13.3-10.6,27.3-14.2,41.5c-0.8,3.6-1.5,7.2-2.3,10.7l-1.1,5.4l-0.8,5.4l-1.5,10.9c-0.4,3.6-0.6,7.3-0.9,10.9l-0.4,5.5     c-0.1,1.8-0.1,3.6-0.1,5.5l-0.2,10.9c0,3.6,0.4,7.3,0.5,10.9c0.2,3.6,0.5,7.3,0.8,10.9l0.4,0c0.1-7.2,0-14.5,0.4-21.7l0.7-10.8     c0.1-1.8,0.2-3.6,0.4-5.4l0.6-5.4l1.2-10.8l1.8-10.7l0.9-5.4l1.1-5.3c0.8-3.5,1.5-7.1,2.3-10.6c3.4-14,7.8-27.9,13.2-41.3     c5.5-13.4,11.8-26.5,20-38.4L277.9,252.6z"/><linearGradient gradientTransform="matrix(-0.9617 -0.2739 -0.2739 0.9617 689.7503 82.2448)" gradientUnits="userSpaceOnUse" id="SVGID_49_" x1="398.8138" x2="535.7997" y1="328.4059" y2="181.6102"><stop offset="0" style="stop-color:#008261"/><stop offset="1" style="stop-color:#A6C715"/></linearGradient><path class="st50" d="M227.6,288.3c43.7-13.4,16.1-98.9-68.4-129.8c0,0-19.8,35.5-20.6,71.7C137.8,261.1,166.5,307,227.6,288.3z"/><linearGradient gradientTransform="matrix(-1 0 0 1 633.2129 0)" gradientUnits="userSpaceOnUse" id="SVGID_50_" x1="370.8864" x2="492.151" y1="403.9062" y2="182.815"><stop offset="0" style="stop-color:#008261"/><stop offset="1" style="stop-color:#A6C715"/></linearGradient><path class="st51" d="M167,169.5c1.6,2.2,3.1,4.5,4.6,6.8c1.5,2.3,3,4.6,4.4,7c1.5,2.3,2.8,4.7,4.1,7.1c1.3,2.4,2.7,4.7,3.9,7.2     c2.5,4.9,5.1,9.6,7.3,14.6c1.1,2.5,2.3,4.9,3.5,7.4l3.1,7.5l3.1,7.5l2.8,7.6l2.8,7.6c1,2.5,1.6,5.2,2.5,7.7     c0.8,2.6,1.7,5.2,2.5,7.7l1.3,3.9c0.4,1.3,0.7,2.6,1.1,3.9l4.1,15.7c1.2,5.3,2.3,10.6,3.5,15.9c0.5,2.7,1.2,5.3,1.6,8     c0.4,2.7,0.8,5.4,1.2,8c0.8,5.4,1.8,10.7,2.6,16.1c0.5,5.4,1.1,10.8,1.7,16.2l0.9,8.1l0.4,8.2l1,16.4c0.7,10.9,0.2,21.9,0.9,32.9     l0.6,0.1l1-16.5l0.5-8.2c0.2-2.7,0.4-5.5,0.3-8.2l-0.1-16.5l-0.1-8.3l-0.6-8.2l-1.2-16.5c-0.6-5.5-1.5-10.9-2.2-16.4l-1.1-8.2     c-0.4-2.7-1.1-5.4-1.6-8.1c-1.1-5.4-2.1-10.8-3.4-16.2c-5.3-21.4-12.5-42.3-21.7-62.3c-9.3-19.9-20.4-39.2-34.6-56L167,169.5z"/><linearGradient gradientTransform="matrix(-0.9987 5.160000e-02 5.160000e-02 0.9987 619.9705 -10.1674)" gradientUnits="userSpaceOnUse" id="SVGID_51_" x1="441.8379" x2="540.67" y1="318.8595" y2="212.9499"><stop offset="0" style="stop-color:#008261"/><stop offset="1" style="stop-color:#A6C715"/></linearGradient><path class="st52" d="M202.8,328.1c26.7-19.3-12.1-71.3-77-72.7c0,0-5.2,28.9,2.6,53.8C135.1,330.4,165.4,355.1,202.8,328.1z"/><linearGradient gradientTransform="matrix(-1 0 0 1 633.2129 0)" gradientUnits="userSpaceOnUse" id="SVGID_52_" x1="383.3588" x2="515.9859" y1="399.212" y2="278.0984"><stop offset="0" style="stop-color:#008261"/><stop offset="1" style="stop-color:#A6C715"/></linearGradient><path class="st53" d="M133.7,261.1c6.6,4.4,12.7,9.4,18.4,14.9l4.3,4l4.1,4.2c2.8,2.7,5.3,5.8,7.8,8.7c10.1,12,19,24.8,26.7,38.3     l5.6,10.3c1,1.7,1.8,3.5,2.6,5.2l2.5,5.3l2.5,5.3c0.4,0.9,0.9,1.8,1.3,2.7l1.1,2.7c1.4,3.7,2.9,7.3,4.5,10.9     c1.6,3.6,2.8,7.3,4.1,11.1l3.9,11.2c2.5,7.5,4.5,15.2,7.1,22.7l0.4-0.1c-1.8-7.7-3.4-15.5-5.3-23.2l-3.4-11.4     c-1.1-3.8-2.2-7.7-3.6-11.3l-4.1-11.2l-1-2.8c-0.4-0.9-0.8-1.8-1.2-2.7l-2.4-5.4L207,345c-0.8-1.8-1.6-3.6-2.6-5.4l-5.6-10.5     c-8-13.7-17.2-26.8-28-38.5c-2.7-2.9-5.4-5.8-8.3-8.5l-4.3-4.1l-4.6-3.8c-6.1-5-12.6-9.8-19.6-13.5L133.7,261.1z"/><linearGradient gradientTransform="matrix(-1 0 0 1 633.2129 0)" gradientUnits="userSpaceOnUse" id="SVGID_53_" x1="453.0649" x2="467.8911" y1="257.6832" y2="230.6519"><stop offset="0" style="stop-color:#008261"/><stop offset="1" style="stop-color:#A6C715"/></linearGradient><path class="st54" d="M194.9,247.8c-3.2-2.4-6.7-4.1-10.2-5.5c-1.8-0.7-3.6-1.2-5.4-1.8c-1.8-0.5-3.7-0.9-5.6-1.3     c-3.8-0.6-7.6-1-11.5-0.9c-3.9,0.1-7.8,0.7-11.5,2.1l0,0.4c7.5-0.1,14.9,0.9,22.2,2.3c7.4,1.3,14.7,2.9,21.8,5L194.9,247.8z"/><linearGradient gradientTransform="matrix(-1 0 0 1 633.2129 0)" gradientUnits="userSpaceOnUse" id="SVGID_54_" x1="458.5167" x2="467.8806" y1="230.0325" y2="205.5407"><stop offset="0" style="stop-color:#008261"/><stop offset="1" style="stop-color:#A6C715"/></linearGradient><path class="st55" d="M187.9,223.3c-2.3-2.6-4.9-4.5-7.7-6.1c-1.4-0.9-2.8-1.5-4.3-2.2c-1.5-0.6-3-1.2-4.5-1.7     c-3.1-0.9-6.2-1.7-9.4-1.9c-3.2-0.3-6.6-0.2-9.8,0.9l0,0.4c6.2,0.8,12.2,2.5,18.1,4.5c5.9,1.9,11.8,4.1,17.5,6.6L187.9,223.3z"/><linearGradient gradientTransform="matrix(-1 0 0 1 633.2129 0)" gradientUnits="userSpaceOnUse" id="SVGID_55_" x1="410.0352" x2="410.1047" y1="242.5181" y2="219.325"><stop offset="0" style="stop-color:#008261"/><stop offset="1" style="stop-color:#A6C715"/></linearGradient><path class="st56" d="M218.6,242.5c1.3-2,2.2-3.9,3-5.7c0.7-1.8,1.4-3.6,2-5.3c0.2-0.9,0.6-1.7,0.9-2.5l0.4-1.3     c0.2-0.4,0.3-0.8,0.5-1.2c0.7-1.6,1.4-3.2,2.7-5.2l-0.1-0.3c-2,0.8-3.7,2.1-4.9,3.8c-1.3,1.7-2.2,3.6-2.9,5.6     c-1.3,4-1.9,8.1-1.9,12.3H218.6z"/><linearGradient gradientTransform="matrix(-1 0 0 1 633.2129 0)" gradientUnits="userSpaceOnUse" id="SVGID_56_" x1="425.7621" x2="429.7005" y1="215.1089" y2="197.4589"><stop offset="0" style="stop-color:#008261"/><stop offset="1" style="stop-color:#A6C715"/></linearGradient><path class="st57" d="M204.2,215.8c0.6-1.7,1-3.3,1.2-4.8c0.3-1.5,0.4-3,0.5-4.4c0.1-1.4,0.2-2.8,0.4-4.1c0.2-1.4,0.4-2.7,1-4.4     l-0.2-0.2c-1.3,0.9-2.3,2.3-2.9,3.8c-0.6,1.5-0.9,3.1-1.1,4.7c-0.2,3.2,0.1,6.4,0.8,9.5L204.2,215.8z"/><g><linearGradient gradientTransform="matrix(-1 0 0 1 633.2129 0)" gradientUnits="userSpaceOnUse" id="SVGID_57_" x1="404.6012" x2="404.6012" y1="377.4097" y2="419.067"><stop offset="0" style="stop-color:#E6224B"/><stop offset="1" style="stop-color:#9E1460"/></linearGradient><path class="st58" d="M209.8,424.1h37.5c1.9,0,3.4-1.4,3.7-3.3l5.2-43.5c0.3-2.2-1.5-4.1-3.7-4.1h-47.9c-2.2,0-3.9,1.9-3.7,4.1      l5.2,43.5C206.4,422.7,208,424.1,209.8,424.1z"/><linearGradient gradientTransform="matrix(-1 0 0 1 633.2129 0)" gradientUnits="userSpaceOnUse" id="SVGID_58_" x1="404.601" x2="404.601" y1="388.0411" y2="369.8939"><stop offset="0" style="stop-color:#E6224B"/><stop offset="1" style="stop-color:#9E1460"/></linearGradient><path class="st59" d="M199.8,381.9h57.6c1.2,0,2.2-0.9,2.4-2.1l1.1-7.4c0.2-1.5-0.9-2.8-2.4-2.8h-59.9c-1.5,0-2.6,1.3-2.4,2.8      l1.1,7.4C197.6,381,198.6,381.9,199.8,381.9z"/></g></g></g><g><g><linearGradient gradientTransform="matrix(1 0 0 1 5.7495 0)" gradientUnits="userSpaceOnUse" id="SVGID_59_" x1="122.302" x2="142.3685" y1="351.7607" y2="335.0546"><stop offset="0" style="stop-color:#36277C"/><stop offset="1" style="stop-color:#47A9E0"/></linearGradient><path class="st60" d="M132.2,335.4c2.7-0.9,3.8,1.1,3.6,2.6c-0.4,2.1-1.5,2.4,1.3,4.2c2.1,1.4,2.6,4.2,0.2,5.6     c-3.3,2,0.2,3.5,1,5.2c1.6,3.5-1,4.4-5.3,6.1c-4.4,1.8-7.6,0.9-10.7-1.9c-2.2-2-3.6-4.4-2.2-6.5c1.9-3,5.1-1,3.9-3.9     c-0.7-1.8-0.8-5,3.2-5.3C131.1,341.5,128.2,336.6,132.2,335.4z"/><g><linearGradient gradientTransform="matrix(1 0 0 1 5.7495 0)" gradientUnits="userSpaceOnUse" id="SVGID_60_" x1="119.2159" x2="110.7669" y1="370.443" y2="320.1334"><stop offset="0" style="stop-color:#36277C"/><stop offset="1" style="stop-color:#47A9E0"/></linearGradient><path class="st61" d="M116,329.8c-3.4-0.7-4.5,1.8-4,3.6c0.7,2.6,2.2,2.7-1.1,5.4c-2.4,1.9-2.7,5.5,0.4,6.9      c4.3,2,0.2,4.3-0.6,6.5c-1.5,4.5,1.8,5.2,7.2,6.9c5.5,1.7,9.4,0.2,12.8-3.5c2.5-2.8,3.9-5.8,2-8.1c-2.7-3.4-6.4-0.6-5.2-4.3      c0.7-2.2,0.4-6.2-4.5-6.1C118,337.1,120.9,330.8,116,329.8z"/></g><linearGradient gradientTransform="matrix(1 0 0 1 5.7495 0)" gradientUnits="userSpaceOnUse" id="SVGID_61_" x1="130.7751" x2="120.6324" y1="337.7491" y2="353.4428"><stop offset="0" style="stop-color:#36277C"/><stop offset="1" style="stop-color:#47A9E0"/></linearGradient><path class="st62" d="M122,353.7c-3.6,5.2-4.7,8.7-0.2,9.2c4.5,0.4,10.3-11.1,6.9-13.3C126.3,348,123.6,351.2,122,353.7z"/><linearGradient gradientTransform="matrix(1 0 0 1 5.7495 0)" gradientUnits="userSpaceOnUse" id="SVGID_62_" x1="119.1616" x2="119.1616" y1="340.3515" y2="378.482"><stop offset="0" style="stop-color:#344596"/><stop offset="0.6488" style="stop-color:#E72569"/><stop offset="1" style="stop-color:#EFBA92"/></linearGradient><path class="st63" d="M119.8,375.3H130c1.3,0,2.4-0.9,2.6-2.2l2.2-13.7c0.1-0.3-0.2-0.6-0.5-0.6h-18.8c-0.3,0-0.6,0.3-0.5,0.6     l2.2,13.7C117.5,374.3,118.5,375.3,119.8,375.3z"/><linearGradient gradientTransform="matrix(1 0 0 1 5.7495 0)" gradientUnits="userSpaceOnUse" id="SVGID_63_" x1="120.1289" x2="109.9835" y1="330.8626" y2="346.5606"><stop offset="0" style="stop-color:#36277C"/><stop offset="1" style="stop-color:#47A9E0"/></linearGradient><path class="st64" d="M116.3,344.4c3.2,1,5.8,2.3,3.8,3.2c-2.1,0.9-9.2-2-8.2-3.3C112.5,343.4,114.8,344,116.3,344.4z"/><linearGradient gradientTransform="matrix(1 0 0 1 5.7495 0)" gradientUnits="userSpaceOnUse" id="SVGID_64_" x1="115.459" x2="105.3172" y1="327.8498" y2="343.5423"><stop offset="0" style="stop-color:#36277C"/><stop offset="1" style="stop-color:#47A9E0"/></linearGradient><path class="st65" d="M116.1,334.3c0.7,2,1.5,3,2.5,1.9c1-1.1-1-5-2.3-4.5C115.3,332,115.7,333.3,116.1,334.3z"/><linearGradient gradientTransform="matrix(1 0 0 1 5.7495 0)" gradientUnits="userSpaceOnUse" id="SVGID_65_" x1="116.4633" x2="133.6676" y1="366.6214" y2="325.564"><stop offset="0" style="stop-color:#36277C"/><stop offset="1" style="stop-color:#47A9E0"/></linearGradient><path class="st66" d="M132.8,338.2c-0.8,2-0.9,3.2,0.6,3c1.5-0.2,2.6-4.4,1.3-4.9C133.8,336,133.1,337.3,132.8,338.2z"/><linearGradient gradientTransform="matrix(1 0 0 1 5.7495 0)" gradientUnits="userSpaceOnUse" id="SVGID_66_" x1="121.105" x2="138.3034" y1="368.557" y2="327.5139"><stop offset="0" style="stop-color:#36277C"/><stop offset="1" style="stop-color:#47A9E0"/></linearGradient><path class="st67" d="M136.5,347.7c1.4-1.2,2-2.2,0.7-2.6c-1.3-0.4-3.7,2.4-2.9,3.3C134.8,349,135.8,348.2,136.5,347.7z"/><linearGradient gradientTransform="matrix(1 0 0 1 5.7495 0)" gradientUnits="userSpaceOnUse" id="SVGID_67_" x1="122.6924" x2="112.5471" y1="332.5197" y2="348.2176"><stop offset="0" style="stop-color:#36277C"/><stop offset="1" style="stop-color:#47A9E0"/></linearGradient><path class="st68" d="M121.1,343.8c-1.2-0.4-2-0.5-1.9,0.5c0.2,0.9,2.8,1.4,3.1,0.6C122.5,344.4,121.7,344,121.1,343.8z"/></g><g><path class="st6" d="M238.6,448.5c0,1-39.8,1.7-88.9,1.7s-88.9-0.8-88.9-1.7c0-1,39.8-1.7,88.9-1.7S238.6,447.5,238.6,448.5z"/><g><linearGradient gradientTransform="matrix(1 0 0 1 -124.3389 0)" gradientUnits="userSpaceOnUse" id="SVGID_68_" x1="274.3871" x2="274.3871" y1="353.5829" y2="427.0092"><stop offset="0" style="stop-color:#E6224B"/><stop offset="1" style="stop-color:#FAB327"/></linearGradient><path class="st69" d="M237.2,381H62.9c-1.6,0-2.9-1.3-2.9-2.9l0,0c0-1.6,1.3-2.9,2.9-2.9h174.4c1.6,0,2.9,1.3,2.9,2.9l0,0      C240.1,379.7,238.8,381,237.2,381z"/><linearGradient gradientUnits="userSpaceOnUse" id="SVGID_69_" x1="85.6274" x2="85.6274" y1="506.2845" y2="403.7174"><stop offset="0" style="stop-color:#E6224B"/><stop offset="1" style="stop-color:#FFE654"/></linearGradient><path class="st70" d="M108.4,381H62.9c-1.6,0-2.9-1.3-2.9-2.9l0,0c0-1.6,1.3-2.9,2.9-2.9h45.5c1.6,0,2.9,1.3,2.9,2.9l0,0      C111.3,379.7,110,381,108.4,381z"/><linearGradient gradientUnits="userSpaceOnUse" id="SVGID_70_" x1="67.0004" x2="67.0004" y1="506.3172" y2="403.7235"><stop offset="0" style="stop-color:#E6224B"/><stop offset="1" style="stop-color:#FFE654"/></linearGradient><rect class="st71" height="67.4" width="5.8" x="64.1" y="381"/><linearGradient gradientUnits="userSpaceOnUse" id="SVGID_71_" x1="104.2321" x2="104.2321" y1="506.3169" y2="403.7238"><stop offset="0" style="stop-color:#E6224B"/><stop offset="1" style="stop-color:#FFE654"/></linearGradient><rect class="st72" height="67.4" width="5.8" x="101.3" y="381.1"/><linearGradient gradientTransform="matrix(1 0 0 1 -124.3391 0)" gradientUnits="userSpaceOnUse" id="SVGID_72_" x1="230.0187" x2="230.0187" y1="353.576" y2="427.0211"><stop offset="0" style="stop-color:#E6224B"/><stop offset="1" style="stop-color:#FAB327"/></linearGradient><rect class="st73" height="67.4" width="2.9" x="104.2" y="381.1"/><linearGradient gradientUnits="userSpaceOnUse" id="SVGID_73_" x1="233.0905" x2="233.0905" y1="506.3169" y2="403.7238"><stop offset="0" style="stop-color:#E6224B"/><stop offset="1" style="stop-color:#FFE654"/></linearGradient><rect class="st74" height="67.4" width="5.8" x="230.2" y="381.1"/><linearGradient gradientTransform="matrix(1 0 0 1 -124.3389 0)" gradientUnits="userSpaceOnUse" id="SVGID_74_" x1="320.2034" x2="320.2034" y1="353.5756" y2="427.0207"><stop offset="0" style="stop-color:#E6224B"/><stop offset="1" style="stop-color:#FAB327"/></linearGradient><rect class="st75" height="67.4" width="5.8" x="193" y="381"/><linearGradient gradientTransform="matrix(1 0 0 1 -124.3389 0)" gradientUnits="userSpaceOnUse" id="SVGID_75_" x1="358.877" x2="358.877" y1="353.576" y2="427.0211"><stop offset="0" style="stop-color:#E6224B"/><stop offset="1" style="stop-color:#FAB327"/></linearGradient><rect class="st76" height="67.4" width="2.9" x="233.1" y="381.1"/><linearGradient gradientTransform="matrix(1 0 0 1 -124.3391 0)" gradientUnits="userSpaceOnUse" id="SVGID_76_" x1="191.3378" x2="191.3378" y1="353.5698" y2="427.0308"><stop offset="0" style="stop-color:#E6224B"/><stop offset="1" style="stop-color:#FAB327"/></linearGradient><polygon class="st77" points="64.1,381 64.1,382.9 69.9,387 69.9,381     "/><linearGradient gradientTransform="matrix(1 0 0 1 -124.3391 0)" gradientUnits="userSpaceOnUse" id="SVGID_77_" x1="228.5722" x2="228.5722" y1="353.5698" y2="427.0308"><stop offset="0" style="stop-color:#E6224B"/><stop offset="1" style="stop-color:#FAB327"/></linearGradient><polygon class="st78" points="107.1,381 101.3,381 101.3,382.9 107.1,387     "/><linearGradient gradientTransform="matrix(1 0 0 1 -124.3389 0)" gradientUnits="userSpaceOnUse" id="SVGID_78_" x1="320.2003" x2="320.2003" y1="373.791" y2="361.8263"><stop offset="0" style="stop-color:#E6224B"/><stop offset="1" style="stop-color:#FAB327"/></linearGradient><polygon class="st79" points="198.8,381 193,381 193,382.9 198.8,387     "/><linearGradient gradientTransform="matrix(1 0 0 1 -124.3389 0)" gradientUnits="userSpaceOnUse" id="SVGID_79_" x1="357.4346" x2="357.4346" y1="353.5698" y2="427.0308"><stop offset="0" style="stop-color:#E6224B"/><stop offset="1" style="stop-color:#FAB327"/></linearGradient><polygon class="st80" points="230.2,381 230.2,382.9 236,387 236,381     "/></g></g><g><g><g><linearGradient gradientTransform="matrix(-1 0 0 1 577.3867 0)" gradientUnits="userSpaceOnUse" id="SVGID_80_" x1="388.3244" x2="438.0197" y1="393.0491" y2="315.3675"><stop offset="0" style="stop-color:#36277C"/><stop offset="1" style="stop-color:#47A9E0"/></linearGradient><polygon class="st81" points="136.1,370.6 193.6,370.6 189.4,333.2 131.9,333.2      "/><polygon class="st82" points="137.5,368.5 191.7,368.5 189.7,350.3 135.4,350.3      "/><g><polygon class="st83" points="174.7,366.3 190.2,366.3 188.6,351.6 173.1,351.6       "/></g><g><polygon class="st84" points="177.5,347.9 189.4,347.9 189,344 177,344       "/><linearGradient gradientTransform="matrix(-1 0 0 1 577.3867 0)" gradientUnits="userSpaceOnUse" id="SVGID_81_" x1="389.8742" x2="395.69" y1="344.8947" y2="344.8947"><stop offset="0" style="stop-color:#008261"/><stop offset="1" style="stop-color:#A6C715"/></linearGradient><polygon class="st85" points="181.8,345.2 187.5,345.2 187.5,344.6 181.7,344.6       "/></g><g><polygon class="st83" points="137.3,357.6 152.8,357.6 151.9,349.2 136.4,349.2       "/><polygon class="st86" points="137.5,359.4 153,359.4 153,358.8 137.5,358.8       "/><polygon class="st86" points="137.7,360.7 153.2,360.7 153.1,360.1 137.6,360.1       "/></g><polygon class="st84" points="163.4,346.5 175.3,346.5 174.9,342.6 162.9,342.6      "/><g><linearGradient gradientTransform="matrix(-1 0 0 1 577.3867 0)" gradientUnits="userSpaceOnUse" id="SVGID_82_" x1="419.5291" x2="446.0268" y1="345.9268" y2="345.9268"><stop offset="0" style="stop-color:#008261"/><stop offset="1" style="stop-color:#A6C715"/></linearGradient><polygon class="st87" points="131.8,347.9 157.9,347.9 157.4,344 131.4,344       "/><polygon class="st84" points="146.6,345.2 156.6,345.2 156.5,344.6 146.6,344.6       "/><polygon class="st84" points="146.8,346.2 156.7,346.2 156.6,345.7 146.7,345.7       "/></g><g><polygon class="st82" points="138.1,341.5 192.3,341.5 191.7,336.1 137.4,336.1       "/><linearGradient gradientTransform="matrix(-1 0 0 1 577.3867 0)" gradientUnits="userSpaceOnUse" id="SVGID_83_" x1="434.6254" x2="439.0197" y1="338.8013" y2="338.8013"><stop offset="0" style="stop-color:#008261"/><stop offset="1" style="stop-color:#A6C715"/></linearGradient><polygon class="st88" points="138.8,340.8 142.8,340.8 142.3,336.8 138.4,336.8       "/><polygon class="st83" points="144.5,340.8 148.4,340.8 148,336.8 144,336.8       "/><polygon class="st83" points="150.1,340.8 154.1,340.8 153.6,336.8 149.7,336.8       "/><polygon class="st83" points="177.3,337.8 190.3,337.8 190.2,337 177.2,337       "/><polygon class="st83" points="177.5,339.1 190.5,339.1 190.4,338.4 177.4,338.4       "/><polygon class="st83" points="184.9,340.5 190.6,340.5 190.5,339.7 184.8,339.7       "/></g><g><polygon class="st86" points="155.8,364.9 171.3,364.9 171.2,364.3 155.7,364.3       "/><polygon class="st86" points="155.9,366.1 171.4,366.1 171.3,365.5 155.8,365.5       "/><polygon class="st89" points="149.4,364.3 183.8,364.3 180.4,334.2 146,334.2       "/></g><g><polygon class="st90" points="131.9,333.2 189.4,333.2 188.7,327.8 131.3,327.8       "/><polygon class="st91" points="132.8,332 188.2,332 188,330.3 132.6,330.3       "/><polygon class="st84" points="187,329.7 187.9,329.7 187.8,328.7 186.9,328.7       "/><polygon class="st84" points="185.3,329.7 186.3,329.7 186.1,328.7 185.2,328.7       "/><polygon class="st84" points="183.7,329.7 184.6,329.7 184.5,328.7 183.6,328.7       "/></g></g></g><g><linearGradient gradientTransform="matrix(-8.2206 -27.5 -27.0826 6.4375 -4772.9512 -2709.6406)" gradientUnits="userSpaceOnUse" id="SVGID_84_" x1="-144.8232" x2="-143.0792" y1="-138.7825" y2="-138.7825"><stop offset="0" style="stop-color:#E6224B"/><stop offset="1" style="stop-color:#FAB327"/></linearGradient><path class="st92" d="M176.4,351.5c-0.8,4.2-4.1,7.6-8.7,8.2c-2.2,0.3-4.4,0-6.3-0.9l2-5.1c2.4,1.1,5.3,0.4,6.7-1.8      c0.4-0.6,0.7-1.2,0.8-1.9L176.4,351.5z"/><linearGradient gradientTransform="matrix(12.8291 0 -0.8318 -12.8291 2022.9974 -1553.3772)" gradientUnits="userSpaceOnUse" id="SVGID_85_" x1="-155.2891" x2="-153.545" y1="-148.0194" y2="-148.0194"><stop offset="0" style="stop-color:#36277C"/><stop offset="1" style="stop-color:#47A9E0"/></linearGradient><path class="st93" d="M155.7,353.8c-0.6-1.1-1.1-2.2-1.3-3.5c-1.3-6.1,2.6-11.8,8.6-12.8c6.1-0.9,12.1,3.3,13.4,9.4l0.1,0.4      l-5.5,0.6c-0.3-1.5-1.1-2.9-2.5-3.9c-2.6-1.9-6.1-1.3-7.8,1.2c-1.2,1.8-1.2,4.1-0.1,5.9"/><linearGradient gradientTransform="matrix(8.7314 -4.625 -5.2106 -9.0313 799.0226 -1663.592)" gradientUnits="userSpaceOnUse" id="SVGID_86_" x1="-159.5767" x2="-157.833" y1="-142.5309" y2="-142.5309"><stop offset="0" style="stop-color:#008261"/><stop offset="1" style="stop-color:#A6C715"/></linearGradient><path class="st94" d="M162.3,353.2c0.3,0.2,0.7,0.4,1.1,0.6l-2,5.1c-2.4-1-4.4-2.8-5.7-5.1l4.8-2.6      C160.9,351.9,161.5,352.6,162.3,353.2z"/><linearGradient gradientTransform="matrix(6.0427 -5.125 -5.5384 -6.375 374.6342 -1356.1484)" gradientUnits="userSpaceOnUse" id="SVGID_87_" x1="-161.5216" x2="-159.7772" y1="-138.6706" y2="-138.6706"><stop offset="0" style="stop-color:#293275"/><stop offset="1" style="stop-color:#61B55A"/></linearGradient><path class="st95" d="M176.4,347.3c0.3,1.4,0.2,2.8,0,4.2l-5.5-1.4c0.1-0.7,0.1-1.4,0-2.1L176.4,347.3z"/></g></g></g><g><g><linearGradient gradientTransform="matrix(0.8488 0.5288 -0.5288 0.8488 180.0433 -198.1874)" gradientUnits="userSpaceOnUse" id="SVGID_88_" x1="426.025" x2="424.5535" y1="204.859" y2="172.353"><stop offset="0" style="stop-color:#008261"/><stop offset="1" style="stop-color:#A6C715"/></linearGradient><path class="st96" d="M450.2,174.3c-1.2-5.3-11.5-11.8-15.1,0.5c-3,10.1-9.4,6.3-11.1,18c-1.1,7.3,12.5,19.4,20.7,12.4     C454.7,196.8,452.7,184.7,450.2,174.3z"/><linearGradient gradientTransform="matrix(0.472 0.8816 -0.8816 0.472 421.5681 -262.8129)" gradientUnits="userSpaceOnUse" id="SVGID_89_" x1="307.1914" x2="329.8484" y1="284.717" y2="265.9023"><stop offset="0" style="stop-color:#E6224B"/><stop offset="1" style="stop-color:#9E1460"/></linearGradient><path class="st97" d="M424.9,193.2c1.3,0.2,4.1,0.5,10.8-0.4c4-0.5,5.7-1,6.8-1.3c2.1-0.5,2.1-2.4,1.2-3.1     c-1.5-1.2-4-1.7-5.1-1.5c-6.4,1.3-11.1,2.4-12.8,2.5C423.4,189.5,423.4,192.9,424.9,193.2z"/><linearGradient gradientTransform="matrix(0.472 0.8816 -0.8816 0.472 421.5681 -262.8129)" gradientUnits="userSpaceOnUse" id="SVGID_90_" x1="332.7487" x2="367.2333" y1="267.314" y2="238.6776"><stop offset="0" style="stop-color:#E6224B"/><stop offset="1" style="stop-color:#9E1460"/></linearGradient><path class="st98" d="M413.8,184.1c0.2,1,1.1,1.1,3.4,3.3c3.3,3.2,4.3,3.9,7.3,5.6c1.9,1.1,4.3-1.2,2.3-3     c-1.7-1.5-10.7-6.2-11.7-7.1C414.3,182.3,413.6,183.3,413.8,184.1z"/><path class="st99" d="M443.8,179.9c0.1,0.2,1.1,4,1.7,7c0.3,1.5-0.5,3-1.5,3.3c0,0,0,0,0,0c-1,0.2-2.5-0.9-2.7-2.3     c-0.3-2.6-1-5.2-1-5.3L443.8,179.9z"/><linearGradient gradientUnits="userSpaceOnUse" id="SVGID_91_" x1="442.175" x2="446.5752" y1="192.2631" y2="216.6333"><stop offset="0" style="stop-color:#E6224B"/><stop offset="1" style="stop-color:#9E1460"/></linearGradient><path class="st100" d="M449.7,204.5c-0.1-2.8-0.1-5.7,0.3-8.5c0.1-0.5,0.2-1,0.3-1.5c0.3-1.2,0.6-2.4,0.7-3.7     c0.1-1.1,0.1-2.3-0.3-3.3c-1.4-3.9-7.9-1.8-10.7-1c-0.5,0.1-1,0.3-1.5,0.5c-0.9,0.4-1.8,1.2-2.3,2.1c-0.5,0.9-0.6,2-0.8,3.1     c-0.8,4.2-3.1,4.7-0.5,9c3.8,6.2,1.5,11.1,2,14.5c0.9-0.2,16.8-3.2,16.8-3.2L449.7,204.5z"/><path class="st101" d="M466.4,218.7c1.6-0.3,2.5-0.2,3-0.7c0.6-0.6-0.8-1.3-1.4-1.3c-0.6,0-2.6-0.1-3,0.5     C464.7,217.8,465.3,218.9,466.4,218.7z"/><linearGradient gradientTransform="matrix(0.937 -0.3495 0.3495 0.937 -57.0746 141.4512)" gradientUnits="userSpaceOnUse" id="SVGID_92_" x1="442.7462" x2="441.6074" y1="200.3111" y2="198.2345"><stop offset="0" style="stop-color:#E6224B"/><stop offset="1" style="stop-color:#9E1460"/></linearGradient><path class="st102" d="M457.6,203.3c-0.2-1.3-0.8-4.1-3.7-10.1c-1.7-3.7-2.7-5.1-3.3-6.1c-1.2-1.8-2.9-1.3-3.4-0.2     c-0.7,1.8-0.4,4.3,0.2,5.3c3.2,5.7,5.4,10,6.3,11.4C455.1,206,457.7,204.9,457.6,203.3z"/><linearGradient gradientTransform="matrix(-1.0335 -0.2835 0.1087 -1.1318 711.8683 676.9578)" gradientUnits="userSpaceOnUse" id="SVGID_93_" x1="267.2375" x2="266.0986" y1="320.4189" y2="318.3421"><stop offset="0" style="stop-color:#E6224B"/><stop offset="1" style="stop-color:#9E1460"/></linearGradient><path class="st103" d="M467.2,217.5c0.3-0.9-1.6-1.7-3.4-5.1c-2.6-4.9-3.2-6.3-5.8-9.4c-1.7-2-5.7-1.6-4.1,1.2     c1.4,2.4,10,13,11.2,14C465.4,218.3,467,218.2,467.2,217.5z"/><path class="st101" d="M446.9,178.3c-0.8,3.3-1,4-2.7,5.1c-1.7,1.1-3.8,1.5-5.4,1.2c-1.7-0.3-2.7-2.3-2.9-3.7     c-0.2-1.5-0.1-5,0.9-8.6c0.5-1.8,3.1-3.7,5.5-3.4C444.7,169.4,448.9,170.3,446.9,178.3z"/><path class="st101" d="M415.7,183.8c-0.1-0.6-1.2-2-1.5-2.4c-0.7-0.9-2.6-2.4-2.7-1.5c-0.1,1.2,0.2,2.6,0.9,3.2     c0.5,0.4,1.6,1.6,2.2,1.7C415.2,184.9,415.9,184.7,415.7,183.8z"/><path class="st101" d="M414.9,184.3c-0.3-0.2-1.1-0.5-1.4-0.6c-0.6-0.2-1.7-0.4-1.4,0c0.4,0.4,1.1,0.9,1.5,1     c0.3,0.1,1.1,0.3,1.3,0.2C415.2,184.8,415.3,184.6,414.9,184.3z"/><linearGradient gradientTransform="matrix(-0.9821 0.1886 0.1886 0.9821 615.5589 -64.2445)" gradientUnits="userSpaceOnUse" id="SVGID_94_" x1="430.3192" x2="413.3036" y1="39.4301" y2="60.4653"><stop offset="0" style="stop-color:#36277C"/><stop offset="1" style="stop-color:#47A9E0"/></linearGradient><path class="st104" d="M410.5,230.4c-0.1,0.4-0.9,1.4-2,2.3c-1.2,0.8-3.8,1.6-2.2,1.8c1.6,0.2,3.3-0.4,4.1-0.7     c0.9-0.3,1.7-0.5,2.7-0.7c1.4-0.3,1.4-0.4,0.9-1.9C413.3,229,410.9,229,410.5,230.4z"/><linearGradient gradientTransform="matrix(-0.637 0.7709 0.7709 0.637 381.7001 -174.2227)" gradientUnits="userSpaceOnUse" id="SVGID_95_" x1="488.6414" x2="471.6252" y1="94.5225" y2="115.5583"><stop offset="0" style="stop-color:#36277C"/><stop offset="1" style="stop-color:#47A9E0"/></linearGradient><path class="st105" d="M431.1,263.7c0.2,0.4,0.2,1.7-0.1,3c-0.4,1.4-1.9,3.6-0.6,2.8c1.4-0.9,2.3-2.4,2.7-3.2     c0.5-0.8,1-1.5,1.7-2.3c0.9-1.1,0.8-1.1-0.5-2C432.5,260.9,430.6,262.5,431.1,263.7z"/><linearGradient gradientTransform="matrix(-0.9888 -0.1495 -0.1495 0.9888 699.6676 -7.0481)" gradientUnits="userSpaceOnUse" id="SVGID_96_" x1="73.3446" x2="162.7848" y1="337.5433" y2="266.5173"><stop offset="0" style="stop-color:#008261"/><stop offset="1" style="stop-color:#A6C715"/></linearGradient><path class="st106" d="M437.6,170.7c-1.6,2,7.2,7.5,9.4,7.5c2.2,0,2.3-4.1,1-6.4C446.7,169.5,441.5,165.9,437.6,170.7z"/><linearGradient gradientTransform="matrix(-0.9888 -0.1495 -0.1495 0.9888 699.6676 -7.0481)" gradientUnits="userSpaceOnUse" id="SVGID_97_" x1="74.9907" x2="164.4319" y1="339.618" y2="268.5912"><stop offset="0" style="stop-color:#008261"/><stop offset="1" style="stop-color:#A6C715"/></linearGradient><path class="st107" d="M441.2,170.7c-0.6,1.8-4,1.8-4.8,3.2c-0.5,0.9-0.2-2.2,0.8-3.4C438.2,169.2,442.5,167,441.2,170.7z"/><linearGradient gradientUnits="userSpaceOnUse" id="SVGID_98_" x1="410.015" x2="417.3395" y1="223.1873" y2="215.4162"><stop offset="0" style="stop-color:#222652"/><stop offset="1" style="stop-color:#3461AB"/></linearGradient><path class="st108" d="M413.2,208.1c0.7-5.3,5.6-4.4,6.2,0.2c0.8,7.1-3.5,15.4-5.1,23.7c-0.6-1.6-1-2-1.7-2.2     c-1.1-0.3-2,0.5-2,0.5C412.5,219.3,412.5,213.8,413.2,208.1z"/><linearGradient gradientTransform="matrix(0.9821 -0.1886 0.1886 0.9821 -36.5473 60.3248)" gradientUnits="userSpaceOnUse" id="SVGID_99_" x1="442.4213" x2="420.9646" y1="247.3098" y2="251.5025"><stop offset="0" style="stop-color:#222652"/><stop offset="1" style="stop-color:#3461AB"/></linearGradient><path class="st109" d="M453,223.6c0,0,5.7-0.7,0.7-11.2l-16.8,3.2c0,0-3.2,6.6,4.4,10.2L453,223.6z"/><linearGradient gradientTransform="matrix(0.9821 -0.1886 0.1886 0.9821 -36.5473 60.3248)" gradientUnits="userSpaceOnUse" id="SVGID_100_" x1="440.3193" x2="418.8648" y1="236.5553" y2="240.7475"><stop offset="0" style="stop-color:#222652"/><stop offset="1" style="stop-color:#3461AB"/></linearGradient><path class="st110" d="M414.7,209.7c-1.8-1.5-1.9-7.8,5.2-4.2c3.2,1.6,21,9.7,22.7,10.6c1.7,0.8,2.4,2.4,2.4,3.4     c0,4.9-5.1,6.6-11.4,2.8C429.5,219.9,418.4,212.8,414.7,209.7z"/><linearGradient gradientTransform="matrix(0.6446 -0.7646 0.7646 0.6446 -49.3046 391.9025)" gradientUnits="userSpaceOnUse" id="SVGID_101_" x1="447.6677" x2="459.1002" y1="241.2457" y2="228.92"><stop offset="0" style="stop-color:#222652"/><stop offset="1" style="stop-color:#3461AB"/></linearGradient><path class="st111" d="M423.8,237.2c-2-5.6,3.5-7.2,5.8-3.3c3.2,5.6,4.6,24.4,4.9,28.1c0,0.5-0.2,0.4-0.5,0.4     c-0.8-0.2-1.5-0.3-1.8-0.1c-0.5,0.3-1,0.9-1,0.9C430,258.2,425.7,242.6,423.8,237.2z"/><linearGradient gradientTransform="matrix(0.9821 -0.1886 0.1886 0.9821 -36.5473 60.3248)" gradientUnits="userSpaceOnUse" id="SVGID_102_" x1="448.5355" x2="459.9683" y1="240.4612" y2="228.1351"><stop offset="0" style="stop-color:#222652"/><stop offset="1" style="stop-color:#3461AB"/></linearGradient><path class="st112" d="M443.8,217c6.4-3.3,12.4-1.6,11.9,3.2c-0.2,2-1.8,3.4-3.4,4.4c-1.6,0.9-19.1,9.7-22.2,11.5     c-6.9,4-7.3-2.4-5.5-3.8C429.1,228.6,440.3,218.8,443.8,217z"/><path class="st101" d="M446.1,178.8c-0.9,0.9-1.2,2-0.7,2.5c0.5,0.5,1.6,0.1,2.4-0.8c0.9-0.9,1.2-2,0.7-2.5     C448,177.5,447,177.8,446.1,178.8z"/></g><g><defs><path d="M453.7,212.4l-3.9-7.9c0-1.8-0.1-3.7,0-5.5c0.2-0.4,0.4-0.8,0.6-1.3c1.6,2.9,2.7,5,3.3,6      c0.1,0.1,0.2,0.2,0.2,0.3c0,0,0,0.1,0.1,0.1c1.4,2.3,9.4,12.2,11,13.9c0.1,0.5,0.6,0.9,1.4,0.8c1.6-0.3,2.5-0.2,3-0.7      c0.6-0.6-0.8-1.3-1.4-1.3c-0.2,0-0.6,0-1,0c-0.5-0.8-1.9-1.9-3.2-4.4c-2.6-4.9-3.2-6.3-5.8-9.4c-0.2-0.2-0.4-0.4-0.6-0.6      c-0.3-1.6-1.2-4.3-3.5-9.1c-0.7-1.5-1.3-2.6-1.7-3.4c0.3-5.2-0.8-10.5-1.9-15.5c-1.2-5.3-11.5-11.8-15.1,0.5      c-2.6,8.7-7.6,7.2-10.1,14c-2.9-1.8-7.9-4.5-9.6-5.6c-0.4-0.7-1-1.5-1.2-1.8c-0.7-0.9-2.6-2.4-2.7-1.5c-0.1,1.2,0.2,2.6,0.9,3.2      c0.1,0.1,0.3,0.3,0.5,0.4c-0.5-0.1-0.9-0.1-0.7,0.1c0.4,0.4,1.1,0.9,1.5,1c0.1,0,0.3,0.1,0.4,0.1c0.4,0.5,1.4,1,3.1,2.7      c3.1,3,4.2,3.8,6.9,5.3c0,0,0,0.1,0,0.1c-0.8,5.3,6.1,13,13,14.3c0.3,2.4,0,4.6-0.2,6.4c-6-2.8-14.8-6.8-16.9-7.9      c-1.4-0.7-2.6-1-3.5-1.1c-0.4-0.1-0.8,0-1.2,0.1c-0.6,0.2-1,0.6-1.3,1.1c-0.4,0.6-0.6,1.3-0.8,2.3c-0.7,5.7-0.7,11.2-2.7,22.2      c0,0,0,0,0,0c0,0-0.1,0.1-0.1,0.1c-0.1,0.4-0.9,1.4-2,2.3c-1.2,0.8-3.8,1.6-2.2,1.8c1.6,0.2,3.3-0.4,4.1-0.7      c0.9-0.3,1.7-0.5,2.7-0.7c1-0.2,1.3-0.3,1.1-1c0,0,0,0,0,0c1.3-6.5,4.2-13,5-18.9c4.8,3.3,11.4,7.5,14.4,9.3      c0.6,0.4,1.2,0.7,1.8,0.9c-4,3.3-8.4,7.1-10.8,9c0,0-0.1,0.1-0.1,0.1c-1,0.8-1.5,2.5-0.7,4.8c1.9,5.3,6.1,20.6,7.3,25.8      c0,0.2-0.1,0.5,0,0.7c0.2,0.4,0.2,1.7-0.1,3c-0.4,1.4-1.9,3.6-0.6,2.8c1.4-0.9,2.3-2.4,2.7-3.2c0.5-0.8,1-1.5,1.7-2.3      c0.8-1,0.8-1.2-0.3-1.9c0,0,0-0.1,0-0.1c-0.3-3.4-1.5-19.1-4-26.2c3.8-2.1,20.2-10.4,21.8-11.3c0.8-0.5,1.6-1.1,2.3-1.8      C455.8,221.7,456.9,219,453.7,212.4" id="SVGID_103_"/></defs><clipPath id="SVGID_104_"><use style="overflow:visible;" xlink:href="#SVGID_103_"/></clipPath><linearGradient gradientTransform="matrix(-0.5115 -0.8102 0.4686 -0.5423 203.943 725.3832)" gradientUnits="userSpaceOnUse" id="SVGID_105_" x1="94.9742" x2="190.9785" y1="672.6818" y2="731.6648"><stop offset="0" style="stop-color:#2A4B9B"/><stop offset="1" style="stop-color:#9E1460"/></linearGradient><path class="st113" d="M445.5,175.6c6.3-6,23.8-0.7,27.4,7.9c3.7,8.8-2.5,14,4.8,25.9c5.8,9.4,2.2,21,2.1,29.8     c0,9.6,5.3,13.6,4.9,22.2c-1,19.9,18.3,29.1,5.5,35c-13.1,6.1-14.1-2.6-29-0.7c-13,1.7-18.1-31.2-18.5-44     c-0.4-13.5,8.4-19,3.2-32.8c-3.1-8.2,0.4-10.1-0.3-22.6C445.3,190.6,438.1,182.7,445.5,175.6z"/></g></g></g></svg>