<?xml version="1.0" ?><svg id="Layer_1" style="enable-background:new 0 0 64 64;" version="1.1" viewBox="0 0 64 64" xml:space="preserve" xmlns="http://www.w3.org/2000/svg" xmlns:xlink="http://www.w3.org/1999/xlink"><style type="text/css">
	.st0{fill:#56AAFF;}
	.st1{fill:#D9DCE1;}
	.st2{fill:#FFFFFF;}
	.st3{fill:none;stroke:#FFFFFF;stroke-width:2;stroke-miterlimit:10;}
	.st4{fill:#0478ED;}
	.st5{fill:none;stroke:#FFFFFF;stroke-width:2;stroke-linecap:square;stroke-linejoin:round;stroke-miterlimit:10;}
	.st6{fill:none;stroke:#0478ED;stroke-width:2;stroke-miterlimit:10;}
	.st7{fill-rule:evenodd;clip-rule:evenodd;fill:#FFFFFF;}
	.st8{fill-rule:evenodd;clip-rule:evenodd;fill:none;stroke:#FFFFFF;stroke-width:2;stroke-linecap:square;stroke-miterlimit:10;}
	.st9{fill:none;stroke:#56AAFF;stroke-width:9.9179;stroke-linecap:round;stroke-miterlimit:10;}
	.st10{fill:none;stroke:#D9DCE1;stroke-width:2;stroke-miterlimit:10;}
	.st11{fill-rule:evenodd;clip-rule:evenodd;fill:none;stroke:#FFFFFF;stroke-width:2;stroke-miterlimit:10;}
	.st12{fill:none;stroke:#D9DCE1;stroke-width:4;stroke-miterlimit:10;}
	.st13{fill:none;stroke:#56AAFF;stroke-width:3;stroke-miterlimit:10;}
	.st14{fill-rule:evenodd;clip-rule:evenodd;fill:#56AAFF;}
	.st15{fill:none;stroke:#56AAFF;stroke-width:2;stroke-miterlimit:10;}
	.st16{fill:none;stroke:#FFFFFF;stroke-width:2;stroke-linecap:square;stroke-miterlimit:10;}
	.st17{fill:none;stroke:#56AAFF;stroke-width:7;stroke-linecap:square;stroke-miterlimit:10;}
	.st18{fill-rule:evenodd;clip-rule:evenodd;fill:#D9DCE1;}
	
		.st19{fill-rule:evenodd;clip-rule:evenodd;fill:none;stroke:#56AAFF;stroke-width:3;stroke-linecap:round;stroke-linejoin:round;stroke-miterlimit:10;}
	.st20{fill-rule:evenodd;clip-rule:evenodd;fill:none;stroke:#56AAFF;stroke-width:4;stroke-linecap:square;stroke-miterlimit:10;}
	.st21{fill-rule:evenodd;clip-rule:evenodd;fill:#0478ED;}
	.st22{fill:none;stroke:#0478ED;stroke-width:2;stroke-linecap:square;stroke-miterlimit:10;}
	.st23{fill:none;stroke:#0478ED;stroke-width:2;stroke-linecap:square;stroke-miterlimit:10;stroke-dasharray:0.1,4;}
	.st24{fill:none;stroke:#D9DCE1;stroke-width:11.5118;stroke-linecap:round;stroke-miterlimit:10;}
	.st25{fill:none;stroke:#D9DCE1;stroke-width:4;stroke-linecap:square;stroke-miterlimit:10;}
	.st26{fill:none;stroke:#FFFFFF;stroke-width:4;stroke-linecap:square;stroke-linejoin:round;stroke-miterlimit:10;}
	.st27{fill:none;stroke:#D9DCE1;stroke-width:10;stroke-linecap:square;stroke-miterlimit:10;}
	.st28{fill:none;stroke:#FFFFFF;stroke-width:4;stroke-linecap:round;stroke-linejoin:round;stroke-miterlimit:10;}
	.st29{fill:none;stroke:#D9DCE1;stroke-width:8;stroke-linecap:round;stroke-miterlimit:10;}
	.st30{fill:none;stroke:#FFFFFF;stroke-width:3;stroke-miterlimit:10;}
	.st31{fill:none;stroke:#FFFFFF;stroke-width:4;stroke-linecap:square;stroke-miterlimit:10;}
	.st32{fill:none;stroke:#56AAFF;stroke-width:6;stroke-miterlimit:10;}
	.st33{fill:#4A4A70;}
	.st34{fill:none;stroke:#56AAFF;stroke-width:5;stroke-miterlimit:10;}
	.st35{fill:none;stroke:#0478ED;stroke-width:4;stroke-linecap:square;stroke-miterlimit:10;}
	.st36{fill:none;stroke:#0478ED;stroke-width:3;stroke-linecap:square;stroke-miterlimit:10;}
	.st37{fill:none;stroke:#0478ED;stroke-width:2;stroke-linecap:round;stroke-miterlimit:10;}
	.st38{fill:none;stroke:#FFFFFF;stroke-width:4;stroke-linecap:round;stroke-miterlimit:10;}
	.st39{fill:none;stroke:#56AAFF;stroke-width:2;stroke-linecap:round;stroke-linejoin:round;stroke-miterlimit:10;}
	.st40{fill:none;stroke:#0478ED;stroke-width:10;stroke-linecap:square;stroke-miterlimit:10;}
	.st41{fill:none;stroke:#0478ED;stroke-width:3;stroke-miterlimit:10;}
	.st42{fill:none;stroke:#0478ED;stroke-width:9;stroke-linecap:square;stroke-miterlimit:10;}
	.st43{fill:none;stroke:#56AAFF;stroke-width:9;stroke-linecap:square;stroke-miterlimit:10;}
	.st44{fill:none;stroke:#56AAFF;stroke-width:5;stroke-linecap:square;stroke-miterlimit:10;}
	.st45{fill:none;stroke:#56AAFF;stroke-width:3;stroke-linecap:square;stroke-miterlimit:10;}
	.st46{fill:none;stroke:#D9DCE1;stroke-width:2;stroke-linecap:square;stroke-miterlimit:10;stroke-dasharray:0.1,4;}
	.st47{fill:none;stroke:#56AAFF;stroke-width:10;stroke-linecap:square;stroke-miterlimit:10;}
	.st48{fill:none;stroke:#D9DCE1;stroke-width:6;stroke-linecap:square;stroke-miterlimit:10;}
</style><g><circle class="st1" cx="18.5" cy="27.5" r="9.5"/></g><path class="st2" d="M21.6,32.5h-6c-1,0-1.7-0.8-1.7-1.7v-6c0-1,0.8-1.7,1.7-1.7h6c1,0,1.7,0.8,1.7,1.7v6  C23.3,31.7,22.5,32.5,21.6,32.5z"/><g><circle class="st4" cx="34.5" cy="15.5" r="8.5"/></g><g><circle class="st0" cx="28.5" cy="43.5" r="13.5"/></g><g><circle class="st1" cx="46" cy="27" r="10"/></g><path class="st30" d="M32,38h-2c-1.7,0-3,1.3-3,3v11"/><line class="st30" x1="31.5" x2="23.7" y1="44.6" y2="44.6"/><path class="st2" d="M46.6,25.3c0-0.3,0-0.5,0-0.7c0-0.9,0.7-1.8,1.6-2.1c1-0.4,1.9-0.2,2.6,0.5c0.1,0,0.1,0.1,0.2,0  c0.5-0.1,0.9-0.3,1.4-0.5c0,0,0.1,0,0.1-0.1c-0.2,0.6-0.5,1-1,1.3c0.5,0,0.9-0.2,1.3-0.4c0,0,0,0,0,0c-0.2,0.2-0.4,0.5-0.6,0.7  c-0.2,0.2-0.4,0.3-0.5,0.5c-0.1,0-0.1,0.1-0.1,0.2c0,1.6-0.4,3.1-1.3,4.4c-1.1,1.5-2.5,2.5-4.4,2.8c-1.3,0.2-2.6,0.1-3.8-0.3  c-0.5-0.2-0.9-0.4-1.3-0.7c1.4,0.1,2.6-0.2,3.6-1c-1.1-0.1-1.9-0.7-2.3-1.7c0.4,0,0.7,0.1,1.1-0.1c-0.7-0.2-1.3-0.6-1.6-1.2  c-0.2-0.4-0.3-0.8-0.3-1.3c0.3,0.2,0.7,0.3,1.1,0.3c-0.5-0.4-0.9-0.9-1-1.5c-0.1-0.6,0-1.2,0.3-1.8C42.9,24.3,44.6,25.2,46.6,25.3z"/><path class="st2" d="M38.8,15.1l-6.1-3.5c-0.3-0.2-0.7,0-0.7,0.4V19c0,0.4,0.4,0.6,0.7,0.4l6.1-3.5C39.1,15.7,39.1,15.3,38.8,15.1z"/><circle class="st1" cx="18.6" cy="27.5" r="2"/><circle class="st1" cx="21.3" cy="25" r="0.5"/></svg>